<svg xmlns="http://www.w3.org/2000/svg" width="60" height="48" fill="none" viewBox="0 0 60 48"><path stroke="#040505" stroke-width="5" d="M2.5 2.5h43v43h-43z"/><path fill="#FF5757" d="M21.71 18.99v-2.535h11.946v2.535h-4.453V31h-3.04V18.99H21.71ZM35.424 31V16.454h5.823c1.07 0 1.963.16 2.678.476.715.318 1.252.758 1.612 1.321.36.56.54 1.203.54 1.932 0 .568-.114 1.068-.34 1.499-.228.426-.54.776-.938 1.051-.393.27-.843.462-1.35.575v.142c.554.024 1.073.18 1.556.469a3.32 3.32 0 0 1 1.186 1.215c.303.516.454 1.131.454 1.846 0 .772-.192 1.46-.575 2.067-.379.601-.94 1.077-1.683 1.427-.744.35-1.66.526-2.749.526h-6.214Zm3.075-2.514h2.507c.857 0 1.482-.164 1.875-.49.393-.332.59-.772.59-1.321 0-.403-.098-.758-.292-1.066a1.979 1.979 0 0 0-.83-.724c-.356-.175-.78-.263-1.272-.263h-2.578v3.864Zm0-5.945h2.28c.421 0 .795-.073 1.122-.22.331-.152.592-.365.781-.64.194-.274.291-.603.291-.986 0-.526-.187-.95-.56-1.272-.37-.322-.896-.483-1.577-.483h-2.337v3.601ZM48.446 31V16.454h9.801v2.536h-6.725v3.466h6.221v2.535h-6.221v3.474h6.754V31h-9.83Z"/></svg>